<?xml version="1.0" encoding="utf-8"?>
<!-- Generator: Adobe Illustrator 26.4.1, SVG Export Plug-In . SVG Version: 6.00 Build 0)  -->
<svg version="1.1" xmlns="http://www.w3.org/2000/svg" xmlns:xlink="http://www.w3.org/1999/xlink" x="0px" y="0px"
	 viewBox="0 0 1080 1080" style="enable-background:new 0 0 1080 1080;" xml:space="preserve">
<style type="text/css">
	.st0{fill:#FFFFFF;}
	.st1{display:none;fill:#FF0000;}
</style>
<g id="Layer_2">
	<rect x="-15.17" y="-5.98" class="st0" width="1101.83" height="1094.94"/>
	<rect x="337.79" y="346.06" class="st1" width="73.67" height="390.17"/>
</g>
<g id="Layer_1">
	<path d="M-167.67,621.29h-54.93V239.21h54.93V621.29z"/>
	<g>
		<path d="M871.9,755.62H547.13c-30.46,0-55.15-24.69-55.15-55.15V379.53c0-30.46,24.69-55.15,55.15-55.15H871.9
			c30.46,0,55.15,24.69,55.15,55.15v320.94C927.05,730.93,902.36,755.62,871.9,755.62z"/>
		<path d="M340.94,682c0,25.48-20.66,46.14-46.14,46.14H186.89c-22.62,0-33.94-11.63-33.94-34.91V381.22
			c0-23.44,11.31-35.16,33.94-35.16h119.14c23.27,0,34.91,11.72,34.91,35.16V498.9c0,6.2-5.03,11.23-11.23,11.23h-34.43
			c-6.2,0-11.23-5.03-11.23-11.23v-92.54c0-6.2-5.03-11.23-11.23-11.23h-51.52c-6.2,0-11.23,5.03-11.23,11.23v261.48
			c0,6.2,5.03,11.23,11.23,11.23h51.52c6.2,0,11.23-5.03,11.23-11.23v-97.39c0-6.23,5.07-11.27,11.3-11.23l34.43,0.23
			c6.17,0.04,11.15,5.06,11.15,11.23V682z"/>
		<path d="M462.8,401v-42.65c0-6.78-5.5-12.28-12.28-12.28h-72.91c-6.78,0-12.28,5.5-12.28,12.28v30.38
			c0,6.78,5.5,12.28,12.28,12.28h17.97c6.78,0,12.28,5.5,12.28,12.28V661.9c0,6.78-5.5,12.28-12.28,12.28h-18.23
			c-6.78,0-12.28,5.5-12.28,12.28v30.38c0,6.78,5.5,12.28,12.28,12.28h73.16c6.78,0,12.28-5.5,12.28-12.28v-42.66h0L462.8,401
			L462.8,401z"/>
		<path class="st0" d="M677.87,727.65h-47.82c-2.17,0-3.92-1.76-3.92-3.92l0,0c0-2.42-2.16-4.26-4.55-3.87
			c-11.36,1.87-22.78,3.73-34.26,5.6c-15.79,2.44-28.81,3.66-39.06,3.66c-20.35,0-30.52-10.17-30.52-30.52V484.99
			c0-2.17,1.76-3.92,3.92-3.92h47.57c2.17,0,3.92,1.76,3.92,3.92v192.26c0,2.2,1.81,3.97,4.01,3.92l45.13-1.04
			c2.13-0.05,3.83-1.79,3.83-3.92V484.99c0-2.17,1.76-3.92,3.92-3.92h47.82c2.17,0,3.92,1.76,3.92,3.92v238.73
			C681.8,725.89,680.04,727.65,677.87,727.65z"/>
		<path class="st0" d="M900.55,678.58c0,15.46-4.64,27.59-13.92,36.38s-21.65,13.18-37.11,13.18H747.9
			c-6.58,0-11.91-5.33-11.91-11.91V357.97c0-6.58,5.33-11.91,11.91-11.91H780c6.58,0,11.91,5.33,11.91,11.91v118.77
			c0,7.31,6.52,12.88,13.74,11.76c8.44-1.3,16.88-2.64,25.32-4.01c16.44-2.6,29.46-3.91,39.06-3.91c20.34,0,30.52,10.01,30.52,30.03
			V678.58z M844.4,663.2V540.32c0-6.66-5.47-12.03-12.13-11.9l-28.68,0.53c-6.49,0.12-11.68,5.41-11.68,11.9v129
			c0,6.58,5.33,11.91,11.91,11.91h22.76C838.45,681.76,844.4,675.57,844.4,663.2z"/>
	</g>
</g>
</svg>
